<svg id="pflogomob" data-name="logoMob" version="1.1" xmlns="http://www.w3.org/2000/svg" xmlns:xlink="http://www.w3.org/1999/xlink" x="0px" y="0px" viewBox="0 0 32 32" style="enable-background:new 0 0 32 32;" xml:space="preserve">
                    <g>
                    	<polygon class="st0" style="fill:#6fa92e;" points="3.2,0 28.8,0 28.8,32 16,27.8 3.2,32 	"></polygon>
                        <path class="st1" style="fill:#FFFFFF;" d="M23.5,17.2l-3.9-5.2l4-5.3H11.3c-0.4,0-0.8,0.2-1,0.5C10.1,7.3,10,7.6,10,7.9L10,23c0.3,0.4,0.8,0.7,1.3,0.7
                    		s1-0.3,1.3-0.7l0-5.8H23.5z M12.6,9.2h5.7l-1.4,1.9l-0.4,0.6L16.3,12l0.2,0.2l0.4,0.6l1.4,1.8h-5.6V9.2z"></path>
                    </g>
</svg>